# xmcd CD database file
#
# Track frame offsets:
#	150
#	17985
#	32852
#	47202
#	64395
#	78027
#	90625
#	103527
#	120757
#	145497
#	158325
#	167157
#	180285
#	193295
#	204062
#	221082
#
# Disc length: 3124 seconds
#
# Revision: 1
# Processed by: cddbd v1.5.2PL0 Copyright (c) Steve Scherf et al.
# Submitted via: CDex 1.70beta2
#
DISCID=d10c3210
DTITLE=Various Artist - Country Feelings CD2of2
DYEAR=2007
DGENRE=Country
TTITLE0=Cumberland Boys - Will The Circle Be Unbroken
TTITLE1=Olivia Newton-John - The Banks Of The Ohio
TTITLE2=John Brack - Wabash Cannonball
TTITLE3=Rebecca Holden - Cowboys Dream
TTITLE4=David Houston - Almost Persuaded
TTITLE5=Lynn Anderson - Stand By Your Man
TTITLE6=Billy Troy - Blue Tail Fly
TTITLE7=Pam Gadd - Sweet Betsy From Pike
TTITLE8=John Brack - Streets Of Laredo
TTITLE9=Susan Raye - L. A. International Airport
TTITLE10=Nashville Quartett - Oh Susanna
TTITLE11=Billy Troy - Bury Me Not On The Lone Prairie
TTITLE12=Nashville Pickers - On Top Of Ol' Smokey
TTITLE13=Hank Locklin - Please Help Me I'm Falling
TTITLE14=Rebecca Holden - Old Paint
TTITLE15=Nashville Music Company - Green, Green Grass Of Home
EXTD=YEAR: 2007
EXTT0=
EXTT1=
EXTT2=
EXTT3=
EXTT4=
EXTT5=
EXTT6=
EXTT7=
EXTT8=
EXTT9=
EXTT10=
EXTT11=
EXTT12=
EXTT13=
EXTT14=
EXTT15=
PLAYORDER=
